<?xml version="1.0" encoding="iso-8859-1"?>
<!-- Generator: Adobe Illustrator 19.0.0, SVG Export Plug-In . SVG Version: 6.00 Build 0)  -->
<svg version="1.1" id="Layer_1" xmlns="http://www.w3.org/2000/svg" xmlns:xlink="http://www.w3.org/1999/xlink" x="0px" y="0px"
	 viewBox="0 0 512 512" style="enable-background:new 0 0 512 512;" xml:space="preserve">
<g>
	<g>
		<path d="M499.2,409.6H12.8c-7.074,0-12.8,5.726-12.8,12.8s5.726,12.8,12.8,12.8h486.4c7.074,0,12.8-5.726,12.8-12.8
			S506.274,409.6,499.2,409.6z"/>
	</g>
</g>
<g>
	<g>
		<path d="M460.8,76.8H51.2c-14.14,0-25.6,11.46-25.6,25.6v256c0,14.14,11.46,25.6,25.6,25.6h409.6c14.14,0,25.6-11.46,25.6-25.6
			v-256C486.4,88.26,474.94,76.8,460.8,76.8z M460.8,358.4H51.2v-256h409.6V358.4z"/>
	</g>
</g>
<g>
	<g>
		<path d="M353.57,164.233c-4.813-6.673-12.544-10.633-20.77-10.633H194.441l-61.688-24.678c-6.528-2.654-14.012,0.546-16.64,7.125
			c-2.628,6.554,0.572,14.003,7.134,16.623l55.953,22.383V256c0,14.14,11.46,25.6,25.6,25.6h102.4
			c11.017,0,20.804-7.049,24.286-17.502l25.6-76.8C359.689,179.49,358.383,170.906,353.57,164.233z M307.2,256H204.8v-76.8h128
			L307.2,256z"/>
	</g>
</g>
<g>
	<g>
		<circle cx="204.8" cy="307.2" r="25.6"/>
	</g>
</g>
<g>
	<g>
		<circle cx="307.2" cy="307.2" r="25.6"/>
	</g>
</g>
<g>
</g>
<g>
</g>
<g>
</g>
<g>
</g>
<g>
</g>
<g>
</g>
<g>
</g>
<g>
</g>
<g>
</g>
<g>
</g>
<g>
</g>
<g>
</g>
<g>
</g>
<g>
</g>
<g>
</g>
</svg>
